<svg width="48" height="48" viewBox="0 0 48 48" fill="none" xmlns="http://www.w3.org/2000/svg">
<rect width="48" height="48" fill="black"/>
<path opacity="0.992" fill-rule="evenodd" clip-rule="evenodd" d="M25.764 24.0103C26.5181 23.9453 27.1551 24.188 27.675 24.7385C29.9302 27.6829 32.2052 30.6101 34.5 33.5199C36.8428 30.5091 39.1948 27.5035 41.556 24.5029C42.323 23.9338 43.135 23.8624 43.992 24.2887C44.5176 24.6252 44.8466 25.1035 44.979 25.7238C45.007 31.5923 45.007 37.4608 44.979 43.3294C44.5283 44.691 43.6113 45.2122 42.228 44.8929C41.5562 44.6362 41.1152 44.1578 40.905 43.4579C40.8496 39.7327 40.8215 36.0059 40.821 32.2777C39.1872 34.4176 37.5282 36.538 35.844 38.6388C35.1691 39.119 34.4412 39.2189 33.66 38.9387C33.3657 38.7956 33.1067 38.6029 32.883 38.3604C31.315 36.3328 29.747 34.3052 28.179 32.2777C28.1785 36.0059 28.1504 39.7327 28.095 43.4579C27.7602 44.4273 27.0882 44.9414 26.079 45C24.9962 44.9524 24.3102 44.3955 24.021 43.3294C23.993 37.4608 23.993 31.5923 24.021 25.7238C24.2549 24.7783 24.8359 24.2072 25.764 24.0103Z" fill="white"/>
</svg>
